<svg xmlns="http://www.w3.org/2000/svg" viewBox="0 0 100 100" fill="none" stroke="currentColor" stroke-width="5" stroke-linecap="round" stroke-linejoin="round">
  <defs>
    <linearGradient id="grad1" x1="0%" y1="0%" x2="100%" y2="100%">
      <stop offset="0%" style="stop-color:#4ade80;stop-opacity:1" />
      <stop offset="100%" style="stop-color:#3b82f6;stop-opacity:1" />
    </linearGradient>
  </defs>
  <path d="M50 50 L50 10 A40 40 0 0 1 90 50 A40 40 0 0 1 50 90 A40 40 0 0 1 10 50 A40 40 0 0 1 50 10" stroke="url(#grad1)" stroke-width="8" stroke-opacity="0.2"/>
  <path d="M50 50 L50 20 A30 30 0 0 1 80 50 A30 30 0 0 1 50 80 A30 30 0 0 1 20 50 A30 30 0 0 1 50 20" stroke="url(#grad1)" stroke-width="6" stroke-opacity="0.6"/>
  <path d="M50 50 L50 35 A15 15 0 0 1 65 50 A15 15 0 0 1 50 65 A15 15 0 0 1 35 50 A15 15 0 0 1 50 35" stroke="url(#grad1)" stroke-width="4" stroke-opacity="1"/>
</svg>
